<?xml version="1.0" encoding="UTF-8" standalone="no"?>
<!-- Created with Inkscape (http://www.inkscape.org/) -->

<svg
   xmlns:dc="http://purl.org/dc/elements/1.1/"
   xmlns:cc="http://creativecommons.org/ns#"
   xmlns:rdf="http://www.w3.org/1999/02/22-rdf-syntax-ns#"
   xmlns:svg="http://www.w3.org/2000/svg"
   xmlns="http://www.w3.org/2000/svg"
   xmlns:sodipodi="http://sodipodi.sourceforge.net/DTD/sodipodi-0.dtd"
   xmlns:inkscape="http://www.inkscape.org/namespaces/inkscape"
   width="400"
   height="600"
   id="svg2"
   version="1.1"
   inkscape:version="0.48.3.1 r9886"
   sodipodi:docname="back.svg">
  <defs
     id="defs4" />
  <sodipodi:namedview
     id="base"
     pagecolor="#ffffff"
     bordercolor="#666666"
     borderopacity="1.0"
     inkscape:pageopacity="0.0"
     inkscape:pageshadow="2"
     inkscape:zoom="0.98994951"
     inkscape:cx="-27.651185"
     inkscape:cy="305.94118"
     inkscape:document-units="px"
     inkscape:current-layer="layer5"
     showgrid="false"
     inkscape:window-width="1280"
     inkscape:window-height="778"
     inkscape:window-x="0"
     inkscape:window-y="0"
     inkscape:window-maximized="1" />
  <metadata
     id="metadata7">
    <rdf:RDF>
      <cc:Work
         rdf:about="">
        <dc:format>image/svg+xml</dc:format>
        <dc:type
           rdf:resource="http://purl.org/dc/dcmitype/StillImage" />
        <dc:title></dc:title>
      </cc:Work>
    </rdf:RDF>
  </metadata>
  <g
     inkscape:groupmode="layer"
     id="layer2"
     inkscape:label="Background"
     style="display:inline">
    <rect
       style="fill:#ffffFF;fill-opacity:0.34715026999999998;fill-rule:evenodd;stroke:#000000;stroke-width:6;stroke-miterlimit:4;stroke-opacity:1;stroke-dasharray:none;stroke-linecap:round;stroke-linejoin:round"
       id="rect3762"
       width="396"
       height="596"
       x="2"
       y="2" />
  </g>
  <g
     inkscape:groupmode="layer"
     id="layer5"
     inkscape:label="Title Border"
     style="display:inline">
    <path
       style="fill:#0000ff;fill-opacity:1;fill-rule:nonzero;stroke:none"
       d="m 255.2427,410.25093 c -8.27891,-1.63289 -19.55907,-8.63422 -24.34885,-15.11274 l -2.19459,-2.96833 6.32765,-3.17013 c 19.46918,-9.75399 36.59775,-26.07619 45.16482,-43.0386 4.07974,-8.07772 6.0114,-14.69386 7.10824,-24.34651 4.89122,-43.04469 -34.83832,-84.81958 -85.62307,-90.03108 -5.46058,-0.56036 -11.49491,-0.82404 -13.40961,-0.58595 -1.9147,0.2381 -5.626,0.66788 -8.24734,0.95509 l -4.76606,0.52219 -5.24859,-10.21792 c -6.378,-12.41668 -14.65385,-21.75406 -22.82354,-25.75112 -8.49555,-4.15648 -19.35269,-4.48404 -30.07597,-0.90739 -12.74146,4.2498 -26.972555,13.57363 -44.023019,28.84268 -6.884807,6.16549 -7.286083,6.38115 -6.578705,3.53553 1.433469,-5.7665 9.204344,-22.25228 13.834514,-29.34967 10.888382,-16.69035 27.18613,-27.75524 54.18375,-36.78652 78.20701,-26.16193 168.68159,11.17531 204.31937,84.31894 10.17103,20.87522 13.56761,35.80314 13.56065,59.599 -0.007,24.16942 -4.0946,42.37911 -14.56021,64.8645 -2.65468,9.1827 -8.88558,12.05225 -16.46944,17.11815 -18.89667,12.62266 -32.6683,19.13614 -46.50124,21.99342 -8.30067,1.71455 -12.93601,1.83651 -19.62876,0.51646 z"
       id="path3816"
       inkscape:connector-curvature="0"
       sodipodi:nodetypes="cscsssssscsssssssssccscc" />
    <path
       style="fill:#00ff00;fill-opacity:1;fill-rule:nonzero;stroke:none"
       d="M 204.48399,459.40063 C 176.32409,455.0353 130.1235,444.9695 105.84323,428.6043 64.132928,400.49104 57.336868,347.57332 53.012498,308.79203 51.739365,297.37448 51.97692,294.60657 56.247779,271.09558 l 6.207624,-14.45977 13.819354,-15.46279 C 118.09358,194.381 142.96996,192.92645 160.58449,227.88186 l 3.51544,6.97628 -7.16492,2.87867 c -11.28062,4.53225 -18.43183,8.96941 -29.26803,18.16013 -4.38032,3.71517 -6.72682,6.91486 -10.76498,14.67917 -7.45953,14.3427 -9.50497,21.6855 -10.14004,36.40101 -0.45175,10.4676 -0.18925,13.81425 1.73751,22.15235 9.90708,42.87311 53.93595,73.39093 98.22831,68.0852 l 9.81992,-1.17632 8.37744,8.58744 c 6.63009,6.7963 9.95462,9.3345 15.93897,12.16904 18.4668,8.74693 40.15429,6.344 66.12091,-7.3261 5.29424,-2.78714 9.6259,-4.72964 9.6259,-4.31665 0,1.5071 -12.79506,23.11089 -18.68782,27.06966 -11.71823,7.87233 -21.31162,16.29641 -35.86041,19.64684 -11.17698,2.57394 -45.52208,9.40107 -57.5787,7.53205 z"
       id="path3818"
       inkscape:connector-curvature="0"
       sodipodi:nodetypes="cssscsscsssssscssssssc" />
    <path
       style="fill:#8bff83;fill-opacity:1;fill-rule:nonzero;stroke:none"
       d="m 137.97327,360.29169 c -14.83619,-15.67341 -21.11408,-32.37448 -20.07997,-53.41875 1.31863,-26.83441 13.00779,-44.30294 37.59474,-56.18238 12.85047,-6.20884 12.02397,-6.36004 15.05728,2.75469 1.43983,4.32654 5.07618,17.58546 8.08079,29.46426 l 5.46291,21.59783 -4.62964,5.67629 c -9.44288,11.57771 -22.03021,33.71612 -30.36527,53.406 -1.23474,2.91682 -2.41014,5.3033 -2.61201,5.3033 -0.20187,0 -4.03084,-3.87056 -8.50883,-8.60124 l 0,0 z"
       id="path3820"
       inkscape:connector-curvature="0" />
    <path
       style="fill:#8bff83;fill-opacity:1;fill-rule:nonzero;stroke:none"
       d="m 186.80632,386.42239 c -7.39924,-1.19056 -15.73248,-3.77568 -22.90231,-7.10472 -5.94474,-2.76022 -7.6186,-3.9817 -7.18585,-5.24382 0.31029,-0.90496 4.30566,-9.42743 8.87858,-18.93883 7.4386,-15.4718 14.49198,-27.79352 19.77276,-34.54148 l 1.82923,-2.33746 1.12918,4.35776 c 5.75024,22.19142 13.94657,46.12403 19.60284,57.23868 1.51249,2.97205 2.55256,5.60116 2.31127,5.84245 -0.67666,0.67666 -20.01976,1.27705 -23.4357,0.72742 z"
       id="path3822"
       inkscape:connector-curvature="0" />
    <path
       style="fill:#04c9ff;fill-opacity:1;fill-rule:nonzero;stroke:none"
       d="m 216.55389,371.60256 c -7.14181,-14.95074 -11.54129,-29.24836 -23.15832,-75.26086 -5.65603,-22.40229 -11.15707,-43.26997 -12.22454,-46.37262 -1.06747,-3.10265 -1.94086,-5.96586 -1.94086,-6.36268 0,-1.45381 14.09722,-2.05522 22.83395,-0.97413 34.13619,4.22402 64.01973,27.67313 72.72391,57.06521 2.2964,7.75441 2.36894,22.28681 0.14721,29.49002 -4.25257,13.78752 -13.17188,26.60822 -26.03935,37.42918 -6.80472,5.72247 -23.27374,15.40823 -26.1991,15.40823 -0.64034,0 -3.40464,-4.69006 -6.1429,-10.42235 l 0,0 z"
       id="path3826"
       inkscape:connector-curvature="0" />
  </g>
</svg>
