<?xml version="1.0" encoding="UTF-8" standalone="no"?>
<!-- Created with Inkscape (http://www.inkscape.org/) -->

<svg
   xmlns:dc="http://purl.org/dc/elements/1.1/"
   xmlns:cc="http://creativecommons.org/ns#"
   xmlns:rdf="http://www.w3.org/1999/02/22-rdf-syntax-ns#"
   xmlns:svg="http://www.w3.org/2000/svg"
   xmlns="http://www.w3.org/2000/svg"
   xmlns:sodipodi="http://sodipodi.sourceforge.net/DTD/sodipodi-0.dtd"
   xmlns:inkscape="http://www.inkscape.org/namespaces/inkscape"
   width="400"
   height="600"
   id="svg2"
   version="1.1"
   inkscape:version="0.48.3.1 r9886"
   sodipodi:docname="duration_duplicate.svg">
  <defs
     id="defs4" />
  <sodipodi:namedview
     id="base"
     pagecolor="#ffffff"
     bordercolor="#666666"
     borderopacity="1.0"
     inkscape:pageopacity="0.0"
     inkscape:pageshadow="2"
     inkscape:zoom="1.4"
     inkscape:cx="95.978769"
     inkscape:cy="471.32616"
     inkscape:document-units="px"
     inkscape:current-layer="layer3"
     showgrid="false"
     inkscape:window-width="1280"
     inkscape:window-height="778"
     inkscape:window-x="0"
     inkscape:window-y="0"
     inkscape:window-maximized="1" />
  <metadata
     id="metadata7">
    <rdf:RDF>
      <cc:Work
         rdf:about="">
        <dc:format>image/svg+xml</dc:format>
        <dc:type
           rdf:resource="http://purl.org/dc/dcmitype/StillImage" />
      </cc:Work>
    </rdf:RDF>
  </metadata>
  <g
     inkscape:groupmode="layer"
     id="layer2"
     inkscape:label="Background"
     style="display:inline"
     sodipodi:insensitive="true">
    <rect
       style="fill:#2f9a16;fill-opacity:1;fill-rule:evenodd;stroke:#000000;stroke-width:6;stroke-miterlimit:4;stroke-opacity:1;stroke-dasharray:none"
       id="rect3762"
       width="396"
       height="596"
       x="2"
       y="2" />
  </g>
  <g
     inkscape:label="Border"
     inkscape:groupmode="layer"
     id="layer1"
     transform="translate(0,-452.36218)"
     sodipodi:insensitive="true">
    <path
       style="fill:#ffffff;fill-opacity:1;stroke:#000000;stroke-width:3.87625575;stroke-linecap:butt;stroke-linejoin:miter;stroke-miterlimit:4;stroke-opacity:1;stroke-dasharray:none"
       d="m 28.4338,485.3259 c 114.68688,-7.03441 235.88901,2.65488 346.5506,-1.39914 -0.90759,139.12031 -2.05465,281.14619 -2.05465,421.84213 0,37.15733 7.76482,83.93578 0,119.62691 -109.11027,9.334 -229.35024,-1.8849 -346.550598,-0.6996 -0.235345,-75.83528 1.025874,-143.67818 1.778592,-211.48624 0.196678,-17.71767 0.35864,-35.43297 0.450116,-53.28784 0.124885,-25.13792 0.101999,-50.21309 -0.17406,-75.21809 -0.660829,-59.85677 -0.28805,-145.12371 0,-199.37813 z"
       id="path2987"
       inkscape:connector-curvature="0"
       sodipodi:nodetypes="ccsccscsc" />
    <path
       style="fill:#c8b7b7;fill-opacity:1;fill-rule:evenodd;stroke:#000000;stroke-width:2.02030516;stroke-linecap:round;stroke-linejoin:round;stroke-miterlimit:4;stroke-opacity:1;stroke-dasharray:none"
       d="m 240.34006,574.22106 c -14.99484,-0.19457 -47.72378,-0.93766 -72.73098,-1.65131 -64.87983,-1.85152 -85.570243,-2.26436 -114.114902,-2.27694 l -25.210716,-0.0111 0.327126,-47.09836 c 0.460766,-66.33919 1.337774,-146.15002 1.673346,-152.2805 l 0.283383,-5.17703 99.325153,0.004 c 95.84629,0.004 203.41658,0.61275 228.72211,1.29378 l 12.21927,0.32885 0.18468,54.11352 c 0.17901,52.45156 0.2276,54.78053 1.582,75.83179 1.23655,19.21955 1.36944,23.8393 1.15507,40.15356 -0.16881,12.84647 -0.47548,19.96647 -1.0116,23.48605 -0.42315,2.77792 -0.93079,6.13391 -1.12811,7.45775 -0.42819,2.87283 0.29584,2.64653 -10.8259,3.38367 -37.13407,2.4612 -69.06842,3.1086 -120.44993,2.44186 l 0,0 z"
       id="path3879"
       inkscape:connector-curvature="0"
       transform="translate(0,452.36218)" />
  </g>
  <g
     inkscape:groupmode="layer"
     id="layer8"
     inkscape:label="Description">
    <text
       xml:space="preserve"
       style="font-size:40px;font-style:normal;font-weight:normal;line-height:125%;letter-spacing:0px;word-spacing:0px;fill:#000000;fill-opacity:1;stroke:none;font-family:Sans"
       x="47.88475"
       y="407.3916"
       id="text3776"
       sodipodi:linespacing="125%"><tspan
         sodipodi:role="line"
         x="47.88475"
         y="407.3916"
         style="font-size:30px;font-style:normal;font-variant:normal;font-weight:normal;font-stretch:normal;font-family:Ubuntu Condensed;-inkscape-font-specification:Ubuntu Condensed"
         id="tspan3013">get a copy of each card</tspan><tspan
         sodipodi:role="line"
         x="47.88475"
         y="444.8916"
         style="font-size:30px;font-style:normal;font-variant:normal;font-weight:normal;font-stretch:normal;font-family:Ubuntu Condensed;-inkscape-font-specification:Ubuntu Condensed"
         id="tspan3020">opponent plays</tspan><tspan
         sodipodi:role="line"
         x="47.88475"
         y="482.3916"
         style="font-size:30px;font-style:normal;font-variant:normal;font-weight:normal;font-stretch:normal;font-family:Ubuntu Condensed;-inkscape-font-specification:Ubuntu Condensed"
         id="tspan3846">Lasts 5 turns.</tspan></text>
  </g>
  <g
     inkscape:groupmode="layer"
     id="layer3"
     inkscape:label="Image">
    <path
       style="fill:#ffffff;fill-opacity:1;stroke:#000000;stroke-width:4;stroke-linecap:round;stroke-linejoin:round;stroke-miterlimit:4;stroke-opacity:1;stroke-dasharray:none"
       d="m 142.14286,153.57144 c 2.49457,30.21205 0.71428,61.92523 0.71428,92.85714 21.12922,-0.90394 42.35168,-0.71429 63.57143,-0.71429 2.93131,-32.74102 -5,-62.31269 -5,-94.28571 -19.77645,0.51962 -40.77767,2.14285 -59.28571,2.14286 z"
       id="path3784"
       inkscape:connector-curvature="0" />
    <path
       style="fill:#ffffff;fill-opacity:1;stroke:#000000;stroke-width:4;stroke-linecap:round;stroke-linejoin:round;stroke-miterlimit:4;stroke-opacity:1;stroke-dasharray:none"
       d="m 181.81779,103.92858 c 2.49457,30.21205 0.71428,61.92523 0.71428,92.85714 21.12922,-0.90394 42.35168,-0.71429 63.57143,-0.71429 2.93131,-32.74102 -5,-62.31269 -5,-94.28571 -19.77645,0.51962 -40.77767,2.14285 -59.28571,2.14286 z"
       id="path3784-5"
       inkscape:connector-curvature="0" />
  </g>
  <g
     inkscape:groupmode="layer"
     id="layer5"
     inkscape:label="Title Border">
    <path
       style="fill:#ac9393;stroke:#000000;stroke-width:6;stroke-linecap:butt;stroke-linejoin:miter;stroke-miterlimit:4;stroke-opacity:1;stroke-dasharray:none"
       d="m 22.479506,309.28572 c 119.074294,2.1322 239.176024,-1.42857 357.142854,-1.42857 1.27394,18.91245 0.71429,38.11391 0.71429,57.14286 -119.08053,-2.0711 -241.12345,-1.42857 -358.571424,-1.42857 -1.39201,-16.79913 -0.8333,-36.78034 0.71428,-54.28572 z"
       id="path3798"
       inkscape:connector-curvature="0" />
  </g>
  <g
     inkscape:groupmode="layer"
     id="layer6"
     inkscape:label="Type">
    <path
       style="fill:#ac9393;stroke:#000000;stroke-width:6.78128862;stroke-linecap:round;stroke-linejoin:miter;stroke-miterlimit:4;stroke-opacity:1;stroke-dasharray:none"
       d="m 56.073681,20.061852 c -16.966255,-0.578357 -28.815498,6.518983 -36.686385,17.587177 -4.263545,9.478206 -5.83647,16.211489 -5.83647,27.260135 -0.712582,11.246971 2.61673,16.981613 5.83647,24.62203 8.232072,13.161526 17.710632,14.945716 30.849917,21.104626 10.833427,3.8279 23.413488,2.90742 31.683701,0 15.070491,-3.58006 18.631726,-12.801071 21.678306,-27.26013 4.76669,-12.760164 2.50812,-27.238707 -0.83378,-37.812421 C 97.156998,22.127505 66.043997,21.421518 56.073681,20.061852 z"
       id="path3840"
       inkscape:connector-curvature="0" />
  </g>
  <g
     inkscape:groupmode="layer"
     id="layer7"
     inkscape:label="Type Image">
    <g
       id="g3835"
       transform="translate(-193.94929,-79.80205)">
      <path
         inkscape:connector-curvature="0"
         id="path3777-1"
         d="m 233.84228,126.61877 c -2.41685,-2.57093 -3.13196,-5.33395 -2.32143,-8.0357 10.1785,-4.66883 27.47057,-1.42857 39.64285,-1.42857 8.78322,-1.04081 1.71387,6.36494 0,9.10713 -2.32253,3.91881 -14.38954,18.40591 -9.82142,22.32144 7.20611,8.36616 12.41406,18.54106 17.67857,26.96428 0.91156,4.16416 -1.92982,5.17857 -5.17857,5.17857 -8.61913,-1.55721 -42.69907,1.5808 -43.39286,-5.35714 2.16099,-10.71581 11.09281,-20.32445 19.46428,-27.5 0.98386,-0.9838 0.89286,-1.86329 0.89286,-3.21428 -3.18125,-7.32187 -10.87195,-12.81371 -16.96428,-18.03573 z"
         style="fill:#ffccaa;fill-opacity:1;stroke:none" />
      <path
         inkscape:connector-curvature="0"
         id="path3781"
         d="m 246.32677,135.22596 c 5.18936,-1.5015 13.17778,-0.90908 16.42857,0.53572 -4.50755,9.91876 -6.07143,17.18225 -6.07143,29.10714 5.44807,4.84963 11.8498,8.5222 18.21429,12.5 1.87347,0.30115 0.74515,1.63933 0.89286,1.96429 -12.6045,-0.50644 -28.3704,2.98367 -40,-0.89286 4.09055,-8.61886 11.43438,-10.0706 17.32142,-13.75 -0.12242,-6.30155 0.1269,-13.00039 -1.07142,-18.39286 -2.04832,-4.16864 -4.9099,-7.45167 -5.71429,-11.07143 z"
         style="fill:#fb6400;fill-opacity:1;stroke:#000000;stroke-width:1px;stroke-linecap:butt;stroke-linejoin:miter;stroke-opacity:0" />
      <path
         inkscape:connector-curvature="0"
         id="path3777"
         d="m 233.75,126.42857 c -2.41685,-2.57093 -3.13196,-5.33395 -2.32143,-8.0357 10.1785,-4.66883 27.47057,-1.42857 39.64285,-1.42857 8.78322,-1.04081 1.71387,6.36494 0,9.10713 -2.32253,3.91881 -14.38954,18.4059 -9.82142,22.32143 7.20611,8.36616 12.41406,18.54106 17.67857,26.96428 0.91156,4.16416 -1.92982,5.17857 -5.17857,5.17857 -8.61913,-1.55721 -42.69907,1.5808 -43.39286,-5.35714 2.16099,-10.71581 11.09281,-20.32445 19.46428,-27.5 0.98386,-0.9838 0.89286,-1.86329 0.89286,-3.21428 -3.18125,-7.32186 -10.87195,-12.8137 -16.96428,-18.03572 z"
         style="fill:none;stroke:#000000;stroke-width:4;stroke-linecap:butt;stroke-linejoin:miter;stroke-miterlimit:4;stroke-opacity:1;stroke-dasharray:none" />
    </g>
  </g>
  <g
     inkscape:groupmode="layer"
     id="layer4"
     inkscape:label="Title">
    <text
       xml:space="preserve"
       style="font-size:40px;font-style:normal;font-weight:normal;line-height:125%;letter-spacing:0px;word-spacing:0px;fill:#000000;fill-opacity:1;stroke:none;font-family:Sans"
       x="78.026848"
       y="354.65549"
       id="text3768"
       sodipodi:linespacing="125%"><tspan
         sodipodi:role="line"
         id="tspan3770"
         x="78.026848"
         y="354.65549"
         style="font-size:54px;font-style:normal;font-variant:normal;font-weight:bold;font-stretch:normal;font-family:Ubuntu Mono;-inkscape-font-specification:Ubuntu Mono">Duplicate</tspan></text>
  </g>
</svg>
